<?xml version="1.0" standalone="no"?>
<!DOCTYPE svg PUBLIC "-//W3C//DTD SVG 20010904//EN"
 "http://www.w3.org/TR/2001/REC-SVG-20010904/DTD/svg10.dtd">
<svg version="1.0" xmlns="http://www.w3.org/2000/svg"
 width="512.000000pt" height="512.000000pt" viewBox="0 0 512.000000 512.000000"
 preserveAspectRatio="xMidYMid meet">

<g transform="translate(0.000000,512.000000) scale(0.100000,-0.100000)"
fill="#002F54" stroke="none">
<path d="M748 5069 c-318 -41 -586 -279 -669 -594 -29 -111 -29 -279 0 -390
38 -143 100 -255 198 -356 l54 -55 -50 -105 c-137 -294 -220 -565 -263 -864
-16 -114 -16 -449 1 -575 74 -552 314 -1047 682 -1405 295 -287 638 -473 1075
-585 607 -156 1330 -118 1878 97 301 118 544 274 765 488 362 352 601 837 676
1371 37 260 28 604 -17 652 -28 29 -80 30 -109 1 -20 -20 -21 -28 -14 -123 31
-438 -40 -819 -224 -1201 -391 -810 -1182 -1243 -2231 -1222 l-225 4 -118 37
c-860 267 -1438 965 -1563 1891 -18 132 -20 415 -4 540 89 709 505 1447 1005
1782 140 94 318 163 419 163 34 0 133 -7 221 -15 204 -19 446 -19 650 0 273
25 392 17 660 -44 252 -57 409 -136 600 -302 304 -264 555 -666 700 -1119 20
-63 43 -125 50 -136 30 -47 101 -35 127 21 9 20 6 42 -16 117 -35 115 -99 280
-166 422 l-50 109 53 56 c149 157 219 333 219 551 0 410 -295 739 -706 790
-232 29 -466 -52 -637 -220 -47 -47 -95 -97 -105 -113 l-19 -27 -120 24 c-188
38 -311 48 -455 36 -418 -33 -502 -33 -920 0 -144 12 -267 2 -455 -36 l-120
-24 -19 27 c-10 16 -58 66 -105 113 -131 129 -273 196 -461 219 -94 12 -97 12
-192 0z m215 -572 l27 -18 -62 -51 c-35 -28 -113 -103 -175 -166 l-112 -115
-12 29 c-18 44 -23 137 -10 177 20 60 66 113 123 141 46 24 63 27 124 24 46
-2 80 -9 97 -21z m3433 -12 c30 -19 60 -49 79 -79 27 -44 30 -58 30 -125 -1
-42 -6 -89 -13 -105 l-13 -29 -122 124 c-67 68 -145 142 -174 163 -29 22 -49
44 -46 49 14 23 71 37 139 35 59 -3 79 -8 120 -33z"/>
<path d="M1435 3545 c-83 -32 -132 -112 -123 -205 16 -167 232 -231 341 -100
52 61 59 132 21 208 -44 88 -149 131 -239 97z"/>
<path d="M3568 3550 c-56 -17 -97 -51 -122 -102 -28 -57 -31 -84 -16 -140 44
-156 257 -187 350 -51 47 69 34 187 -28 246 -29 28 -101 58 -136 56 -11 0 -33
-4 -48 -9z"/>
<path d="M2400 3349 c-199 -23 -356 -89 -476 -202 -84 -78 -118 -123 -168
-223 -95 -192 -136 -431 -137 -798 -1 -491 65 -752 233 -918 147 -147 302
-188 708 -188 406 0 561 41 708 188 168 166 234 427 233 918 -1 426 -61 703
-196 902 -35 51 -131 148 -183 184 -164 113 -452 168 -722 137z m-438 -517
c34 -15 124 -59 198 -99 130 -69 246 -113 296 -113 l24 0 0 -162 c0 -182 -10
-230 -61 -310 -60 -94 -174 -163 -288 -174 -76 -8 -111 -32 -111 -77 0 -50 34
-77 95 -77 123 0 269 66 362 163 33 34 65 71 71 82 l12 20 12 -20 c6 -11 38
-48 71 -82 93 -97 239 -163 361 -163 62 0 96 27 96 76 0 46 -34 69 -111 78
-114 11 -228 80 -288 174 -51 80 -61 128 -61 310 l0 162 24 0 c50 0 166 44
296 113 187 100 261 131 271 115 20 -32 70 -204 84 -289 50 -312 42 -744 -20
-984 -21 -83 -77 -193 -125 -248 -50 -56 -154 -110 -255 -133 -97 -21 -449
-30 -593 -15 -249 26 -363 94 -448 266 -72 148 -99 328 -98 655 1 327 23 504
86 676 16 46 31 84 33 84 2 0 32 -12 67 -28z"/>
</g>
</svg>
